<svg width="464" height="197" viewBox="0 0 464 197" fill="none" xmlns="http://www.w3.org/2000/svg">
<rect x="71.9604" y="10.5024" width="387.422" height="137.698" rx="42.3986" fill="#FFFEE5" stroke="#F8DF5B" stroke-width="8.55752"/>
<g filter="url(#filter0_d_132_351)">
<path d="M123.683 190.35L82.8398 119.608L125.959 94.7135L166.801 165.455L135.692 160.618L123.683 190.35Z" fill="#FFA164"/>
</g>
<g filter="url(#filter1_d_132_351)">
<path d="M174.694 168.953L103.952 128.111L128.847 84.9919L199.588 125.835L170.228 137.2L174.694 168.953Z" fill="#F38431"/>
</g>
<circle cx="78.9626" cy="78.9626" r="75.0728" fill="#F4AF44" stroke="#F8DF5B" stroke-width="7.77957"/>
<path d="M69.7171 108.461C68.9957 108.461 68.3387 108.358 67.7461 108.152C67.1793 107.946 66.7671 107.585 66.5094 107.07C66.4322 107.276 66.3935 107.379 66.3935 107.379V106.644C66.3935 106.799 66.4322 106.941 66.5094 107.07C66.561 106.786 66.664 105.846 66.8186 104.248C66.999 102.625 67.2051 100.577 67.437 98.1035C67.6946 95.6043 67.9651 92.899 68.2486 89.9876C68.532 87.0762 68.8154 84.152 69.0988 81.2148C69.3822 78.2777 69.6527 75.5595 69.9104 73.0603C70.168 70.5612 70.387 68.5 70.5674 66.8769L60.0941 68.616L58.7801 57.0219L96.0356 51.9205C96.0356 51.9205 96.0356 51.9334 96.0356 51.9592C96.0356 51.9592 96.0227 51.9721 95.9969 51.9978C96.2546 51.9978 96.3834 52.1138 96.3834 52.3457V52.4616C96.6926 52.4874 96.8472 52.7708 96.8472 53.3118L96.4994 56.9446L92.6733 107.765L69.7171 108.461Z" fill="white"/>
<defs>
<filter id="filter0_d_132_351" x="79.728" y="94.7136" width="90.1856" height="101.86" filterUnits="userSpaceOnUse" color-interpolation-filters="sRGB">
<feFlood flood-opacity="0" result="BackgroundImageFix"/>
<feColorMatrix in="SourceAlpha" type="matrix" values="0 0 0 0 0 0 0 0 0 0 0 0 0 0 0 0 0 0 127 0" result="hardAlpha"/>
<feOffset dy="3.11183"/>
<feGaussianBlur stdDeviation="1.55591"/>
<feComposite in2="hardAlpha" operator="out"/>
<feColorMatrix type="matrix" values="0 0 0 0 0 0 0 0 0 0 0 0 0 0 0 0 0 0 0.25 0"/>
<feBlend mode="normal" in2="BackgroundImageFix" result="effect1_dropShadow_132_351"/>
<feBlend mode="normal" in="SourceGraphic" in2="effect1_dropShadow_132_351" result="shape"/>
</filter>
<filter id="filter1_d_132_351" x="100.84" y="84.9919" width="101.86" height="90.1851" filterUnits="userSpaceOnUse" color-interpolation-filters="sRGB">
<feFlood flood-opacity="0" result="BackgroundImageFix"/>
<feColorMatrix in="SourceAlpha" type="matrix" values="0 0 0 0 0 0 0 0 0 0 0 0 0 0 0 0 0 0 127 0" result="hardAlpha"/>
<feOffset dy="3.11183"/>
<feGaussianBlur stdDeviation="1.55591"/>
<feComposite in2="hardAlpha" operator="out"/>
<feColorMatrix type="matrix" values="0 0 0 0 0 0 0 0 0 0 0 0 0 0 0 0 0 0 0.25 0"/>
<feBlend mode="normal" in2="BackgroundImageFix" result="effect1_dropShadow_132_351"/>
<feBlend mode="normal" in="SourceGraphic" in2="effect1_dropShadow_132_351" result="shape"/>
</filter>
</defs>
</svg>
