<svg width="492" height="259" viewBox="0 0 492 259" fill="none" xmlns="http://www.w3.org/2000/svg">
<path fill-rule="evenodd" clip-rule="evenodd" d="M163.242 16.7035C172.467 16.703 179.945 9.22478 179.945 0H492.001V16.7039C492.001 16.7039 492 16.7039 492 16.7039C485.291 16.7039 479.852 22.1428 479.852 28.8521C479.852 35.5613 485.291 41.0002 492 41.0002C492 41.0002 492.001 41.0002 492.001 41.0002V56.1847C492.001 56.1847 492 56.1847 492 56.1847C485.291 56.1847 479.852 61.6236 479.852 68.3328C479.852 75.042 485.291 80.4809 492 80.4809C492 80.4809 492.001 80.4809 492.001 80.4809V95.6664C492.001 95.6664 492 95.6664 492 95.6664C485.291 95.6664 479.852 101.105 479.852 107.814C479.852 114.524 485.291 119.963 492 119.963C492 119.963 492.001 119.963 492.001 119.963V135.148C492.001 135.148 492 135.148 492 135.148C485.291 135.148 479.852 140.587 479.852 147.296C479.852 154.005 485.291 159.444 492 159.444C492 159.444 492.001 159.444 492.001 159.444V174.63C492.001 174.63 492 174.63 492 174.63C485.291 174.63 479.852 180.069 479.852 186.778C479.852 193.487 485.291 198.926 492 198.926C492 198.926 492.001 198.926 492.001 198.926V214.11C492.001 214.11 492 214.11 492 214.11C485.291 214.11 479.852 219.549 479.852 226.259C479.852 232.968 485.291 238.407 492 238.407C492 238.407 492.001 238.407 492.001 238.407V258.148L179.945 258.148C179.945 248.923 172.467 241.445 163.242 241.444V16.7035Z" fill="url(#paint0_linear_183_381)"/>
<path fill-rule="evenodd" clip-rule="evenodd" d="M163.241 16.7035C163.24 16.7035 163.239 16.7035 163.238 16.7035C154.013 16.7035 146.535 9.22509 146.535 0H0V16.7037C6.70829 16.7048 12.1461 22.1433 12.1461 28.8519C12.1461 35.5604 6.70829 40.9989 0 41V56.1854C6.70829 56.1865 12.1461 61.625 12.1461 68.3336C12.1461 75.0421 6.70829 80.4806 0 80.4817V95.6662C6.70829 95.6673 12.1461 101.106 12.1461 107.814C12.1461 114.523 6.70829 119.961 0 119.962V135.148C6.70829 135.149 12.1461 140.587 12.1461 147.296C12.1461 154.005 6.70829 159.443 0 159.444V174.63C6.70829 174.631 12.1461 180.069 12.1461 186.778C12.1461 193.486 6.70829 198.925 0 198.926V214.11C6.70829 214.111 12.1461 219.55 12.1461 226.258C12.1461 232.967 6.70829 238.405 0 238.407V258.148H146.535C146.535 258.148 146.535 258.148 146.535 258.148C146.535 248.922 154.013 241.444 163.238 241.444C163.239 241.444 163.24 241.444 163.241 241.444V16.7035Z" fill="url(#paint1_linear_183_381)"/>
<path d="M198.126 181.83V168.692C203.204 167.878 206.905 166.095 209.23 163.343C211.556 160.553 212.718 156.852 212.718 152.24C212.718 150.689 212.563 149.081 212.253 147.414C211.982 145.709 211.633 143.965 211.207 142.182C210.78 140.4 210.335 138.597 209.87 136.776C209.443 134.916 209.075 133.055 208.765 131.195C208.494 129.335 208.358 127.513 208.358 125.73C208.358 120.459 209.637 115.983 212.195 112.301C214.753 108.581 218.377 105.751 223.066 103.814C227.756 101.876 233.298 100.907 239.693 100.907C243.568 100.907 247.173 101.217 250.506 101.837C253.839 102.418 256.435 103.097 258.296 103.872V117.243C256.358 116.467 254.013 115.828 251.261 115.324C248.51 114.82 245.545 114.568 242.367 114.568C237.018 114.568 232.872 115.673 229.926 117.882C226.981 120.052 225.508 123.269 225.508 127.532C225.508 129.238 225.643 130.885 225.915 132.474C226.186 134.024 226.496 135.574 226.845 137.125C227.232 138.636 227.601 140.167 227.949 141.717C228.337 143.268 228.666 144.895 228.938 146.601C229.209 148.267 229.345 150.011 229.345 151.833C229.345 155.863 228.608 159.1 227.136 161.541C225.702 163.944 223.551 165.921 220.683 167.471V167.82H262.075V181.83H198.126ZM197.661 145.729V137.125H253.587V145.729H197.661ZM329.104 185.028C322.748 185.028 317.205 184.001 312.477 181.946C307.749 179.854 303.99 176.966 301.199 173.284C298.447 169.603 296.878 165.359 296.49 160.553L296.432 159.797H313.175L313.291 160.437C313.562 162.452 314.357 164.254 315.675 165.843C317.031 167.393 318.833 168.634 321.081 169.564C323.368 170.455 326.023 170.901 329.046 170.901C332.069 170.901 334.685 170.416 336.894 169.448C339.103 168.44 340.808 167.064 342.01 165.32C343.25 163.537 343.87 161.502 343.87 159.216V159.1C343.87 155.069 342.455 151.988 339.626 149.856C336.797 147.725 332.844 146.659 327.767 146.659H318.174V134.16H327.534C330.48 134.16 333.037 133.675 335.208 132.706C337.378 131.738 339.045 130.4 340.207 128.695C341.409 126.951 342.01 124.955 342.01 122.707V122.591C342.01 120.304 341.486 118.367 340.44 116.778C339.432 115.15 337.94 113.91 335.964 113.057C334.026 112.166 331.681 111.72 328.929 111.72C326.216 111.72 323.813 112.166 321.721 113.057C319.628 113.948 317.961 115.208 316.721 116.836C315.481 118.425 314.725 120.304 314.454 122.475L314.396 122.998H298.292L298.351 122.3C298.738 117.417 300.23 113.193 302.827 109.627C305.462 106.023 309.009 103.232 313.466 101.256C317.922 99.2403 323.077 98.2326 328.929 98.2326C334.975 98.2326 340.207 99.1628 344.626 101.023C349.083 102.845 352.532 105.403 354.974 108.697C357.415 111.991 358.636 115.847 358.636 120.266V120.382C358.636 123.87 357.861 126.932 356.311 129.567C354.76 132.203 352.648 134.373 349.974 136.078C347.339 137.784 344.393 138.985 341.138 139.683V140.031C347.377 140.613 352.358 142.628 356.078 146.077C359.838 149.527 361.717 154.1 361.717 159.797V159.913C361.717 164.913 360.361 169.292 357.648 173.052C354.935 176.811 351.137 179.757 346.253 181.888C341.37 183.981 335.654 185.028 329.104 185.028ZM405.667 185.028C398.575 185.028 392.47 183.264 387.355 179.737C382.239 176.211 378.305 171.211 375.553 164.739C372.84 158.228 371.484 150.534 371.484 141.659V141.543C371.484 132.629 372.84 124.936 375.553 118.463C378.305 111.991 382.239 107.011 387.355 103.523C392.47 99.996 398.575 98.2326 405.667 98.2326C412.759 98.2326 418.844 99.996 423.921 103.523C429.037 107.011 432.971 111.991 435.723 118.463C438.474 124.936 439.85 132.629 439.85 141.543V141.659C439.85 150.534 438.474 158.228 435.723 164.739C432.971 171.211 429.037 176.211 423.921 179.737C418.844 183.264 412.759 185.028 405.667 185.028ZM405.667 170.959C409.155 170.959 412.12 169.796 414.562 167.471C417.003 165.146 418.864 161.793 420.143 157.414C421.46 153.034 422.119 147.783 422.119 141.659V141.543C422.119 135.381 421.46 130.129 420.143 125.788C418.864 121.409 417.003 118.076 414.562 115.789C412.12 113.464 409.155 112.301 405.667 112.301C402.179 112.301 399.195 113.464 396.714 115.789C394.273 118.076 392.412 121.409 391.133 125.788C389.854 130.129 389.215 135.381 389.215 141.543V141.659C389.215 147.783 389.854 153.034 391.133 157.414C392.412 161.793 394.273 165.146 396.714 167.471C399.195 169.796 402.179 170.959 405.667 170.959Z" fill="url(#paint2_linear_183_381)"/>
<path d="M103.074 197.405L68.5472 197.405L68.5472 209.464L61.3469 209.464L61.3469 176.585L68.5472 176.585L68.5472 188.672L103.074 188.672L103.074 197.405ZM103.797 155.244C103.797 159.37 102.92 162.946 101.166 165.972C99.4114 168.98 96.9245 171.303 93.7051 172.941C90.4664 174.561 86.6397 175.37 82.225 175.37L82.1672 175.37C77.7332 175.37 73.9065 174.551 70.6871 172.912C67.4677 171.274 64.9904 168.951 63.2554 165.943C61.5011 162.917 60.624 159.35 60.624 155.244C60.624 151.119 61.5011 147.552 63.2554 144.545C65.0097 141.537 67.4966 139.214 70.716 137.576C73.9162 135.937 77.7332 135.118 82.1672 135.118L82.225 135.118C86.6397 135.118 90.4664 135.937 93.7051 137.576C96.9245 139.214 99.4114 141.537 101.166 144.545C102.92 147.533 103.797 151.099 103.797 155.244ZM96.3944 155.244C96.3944 152.931 95.816 150.936 94.6593 149.258C93.4834 147.581 91.8351 146.29 89.7145 145.383C87.5939 144.477 85.0974 144.024 82.225 144.024L82.1672 144.024C79.2562 144.024 76.75 144.487 74.6487 145.412C72.5282 146.318 70.8992 147.62 69.7618 149.316C68.6051 150.993 68.0267 152.969 68.0267 155.244C68.0267 157.519 68.5954 159.505 69.7328 161.201C70.8702 162.878 72.4992 164.18 74.6198 165.105C76.7211 166.011 79.2369 166.464 82.1672 166.464L82.225 166.464C85.1167 166.464 87.6229 166.011 89.7434 165.105C91.864 164.18 93.5027 162.878 94.6594 161.201C95.816 159.524 96.3944 157.538 96.3944 155.244ZM89.9169 125.084L83.0925 125.084L83.0925 114.847C83.0925 112.341 82.4563 110.394 81.184 109.006C79.8924 107.598 78.061 106.895 75.6898 106.895L75.6319 106.895C73.2607 106.895 71.4389 107.598 70.1666 109.006C68.8942 110.394 68.2581 112.341 68.2581 114.847L68.2581 125.084L61.3469 125.084L61.3469 112.707C61.3469 109.777 61.9445 107.213 63.1397 105.015C64.3157 102.818 65.9736 101.111 68.1135 99.8969C70.2533 98.6631 72.7498 98.0462 75.603 98.0462L75.6608 98.0462C78.5333 98.0462 81.0394 98.6631 83.1793 99.8969C85.3191 101.111 86.977 102.818 88.153 105.015C89.329 107.213 89.9169 109.777 89.9169 112.707L89.9169 125.084ZM103.074 129.479L61.3469 129.479L61.3469 120.746L103.074 120.746L103.074 129.479ZM103.797 66.1218C103.797 69.2834 103.286 72.0401 102.265 74.392C101.224 76.744 99.7873 78.6139 97.9559 80.002C96.1245 81.3707 94.0135 82.1515 91.6231 82.3442L91.2471 82.3732L91.2471 74.045L91.5652 73.9872C92.5677 73.8523 93.4641 73.4571 94.2545 72.8016C95.0256 72.1269 95.6425 71.2304 96.1052 70.1123C96.5486 68.9749 96.7703 67.6544 96.7703 66.1507C96.7703 64.647 96.5293 63.3457 96.0474 62.2469C95.5461 61.148 94.8618 60.2998 93.9943 59.7022C93.1075 59.0853 92.0954 58.7768 90.958 58.7768L90.9001 58.7768C88.8952 58.7768 87.3626 59.4805 86.3023 60.8878C85.242 62.2951 84.7119 64.2614 84.7119 66.7869L84.7119 71.5582L78.4947 71.5582L78.4947 66.9025C78.4947 65.4374 78.2537 64.165 77.7718 63.0855C77.2898 62.0059 76.6247 61.1769 75.7765 60.5986C74.909 60.001 73.9162 59.7022 72.798 59.7022L72.7402 59.7022C71.6028 59.7022 70.6389 59.9624 69.8485 60.4829C69.0388 60.9842 68.4219 61.7264 67.9978 62.7095C67.5544 63.6735 67.3327 64.8398 67.3327 66.2085C67.3327 67.558 67.5544 68.7532 67.9978 69.7942C68.4412 70.8352 69.0677 71.6642 69.8774 72.2811C70.6678 72.898 71.6028 73.2739 72.6824 73.4089L72.9426 73.4378L72.9426 81.4478L72.5956 81.4189C70.1666 81.2261 68.0653 80.4839 66.2917 79.1923C64.4988 77.8814 63.1108 76.1174 62.1276 73.9005C61.1252 71.6835 60.624 69.1195 60.624 66.2085C60.624 63.2011 61.0866 60.5986 62.012 58.4009C62.918 56.1839 64.1904 54.4682 65.829 53.2537C67.4677 52.0392 69.3858 51.4319 71.5835 51.4319L71.6414 51.4319C73.3764 51.4319 74.8993 51.8175 76.2103 52.5886C77.5212 53.3597 78.6007 54.4104 79.449 55.7405C80.2972 57.0514 80.8948 58.5166 81.2418 60.1359L81.4153 60.1359C81.7045 57.0322 82.707 54.5549 84.4227 52.7042C86.1384 50.8343 88.4133 49.8993 91.2471 49.8993L91.305 49.8993C93.7918 49.8993 95.9703 50.574 97.8402 51.9235C99.7102 53.2729 101.175 55.1622 102.236 57.5912C103.277 60.0203 103.797 62.8638 103.797 66.1218Z" fill="white"/>
<g opacity="0.05">
<mask id="mask0_183_381" style="mask-type:luminance" maskUnits="userSpaceOnUse" x="20" y="22" width="448" height="220">
<path d="M467.701 22.7773H20.498V241.444H467.701V22.7773Z" fill="white"/>
</mask>
<g mask="url(#mask0_183_381)">
<path d="M23.0402 -4.66699L-49.5371 246.04" stroke="url(#paint3_linear_183_381)" stroke-width="0.797221" stroke-miterlimit="10"/>
<path d="M28.5822 -4.66699L-43.9951 246.04" stroke="url(#paint4_linear_183_381)" stroke-width="0.797221" stroke-miterlimit="10"/>
<path d="M34.1354 -4.66699L-38.4521 246.04" stroke="url(#paint5_linear_183_381)" stroke-width="0.797221" stroke-miterlimit="10"/>
<path d="M39.6774 -4.66699L-32.9102 246.04" stroke="url(#paint6_linear_183_381)" stroke-width="0.797221" stroke-miterlimit="10"/>
<path d="M45.2223 -4.66699L-27.3652 246.04" stroke="url(#paint7_linear_183_381)" stroke-width="0.797221" stroke-miterlimit="10"/>
<path d="M50.7643 -4.66699L-21.8232 246.04" stroke="url(#paint8_linear_183_381)" stroke-width="0.797221" stroke-miterlimit="10"/>
<path d="M56.3063 -4.66699L-16.2812 246.04" stroke="url(#paint9_linear_183_381)" stroke-width="0.797221" stroke-miterlimit="10"/>
<path d="M61.8493 -4.66699L-10.7383 246.04" stroke="url(#paint10_linear_183_381)" stroke-width="0.797221" stroke-miterlimit="10"/>
<path d="M67.3928 -4.66699L-5.18457 246.04" stroke="url(#paint11_linear_183_381)" stroke-width="0.797221" stroke-miterlimit="10"/>
<path d="M72.9348 -4.66699L0.357422 246.04" stroke="url(#paint12_linear_183_381)" stroke-width="0.797221" stroke-miterlimit="10"/>
<path d="M78.4768 -4.66699L5.89941 246.04" stroke="url(#paint13_linear_183_381)" stroke-width="0.797221" stroke-miterlimit="10"/>
<path d="M84.0217 -4.66699L11.4443 246.04" stroke="url(#paint14_linear_183_381)" stroke-width="0.797221" stroke-miterlimit="10"/>
<path d="M89.5637 -4.66699L16.9863 246.04" stroke="url(#paint15_linear_183_381)" stroke-width="0.797221" stroke-miterlimit="10"/>
<path d="M95.1057 -4.66699L22.5283 246.04" stroke="url(#paint16_linear_183_381)" stroke-width="0.797221" stroke-miterlimit="10"/>
<path d="M100.649 -4.66699L28.0713 246.04" stroke="url(#paint17_linear_183_381)" stroke-width="0.797221" stroke-miterlimit="10"/>
<path d="M106.191 -4.66699L33.6133 246.04" stroke="url(#paint18_linear_183_381)" stroke-width="0.797221" stroke-miterlimit="10"/>
<path d="M111.735 -4.66699L39.1572 246.04" stroke="url(#paint19_linear_183_381)" stroke-width="0.797221" stroke-miterlimit="10"/>
<path d="M117.29 -4.66699L44.7021 246.04" stroke="url(#paint20_linear_183_381)" stroke-width="0.797221" stroke-miterlimit="10"/>
<path d="M122.832 -4.66699L50.2441 246.04" stroke="url(#paint21_linear_183_381)" stroke-width="0.797221" stroke-miterlimit="10"/>
<path d="M128.375 -4.66699L55.7871 246.04" stroke="url(#paint22_linear_183_381)" stroke-width="0.797221" stroke-miterlimit="10"/>
<path d="M133.916 -4.66699L61.3281 246.04" stroke="url(#paint23_linear_183_381)" stroke-width="0.797221" stroke-miterlimit="10"/>
<path d="M139.459 -4.66699L66.8711 246.04" stroke="url(#paint24_linear_183_381)" stroke-width="0.797221" stroke-miterlimit="10"/>
<path d="M145.002 -4.66699L72.4141 246.04" stroke="url(#paint25_linear_183_381)" stroke-width="0.797221" stroke-miterlimit="10"/>
<path d="M150.544 -4.66699L77.9668 246.04" stroke="url(#paint26_linear_183_381)" stroke-width="0.797221" stroke-miterlimit="10"/>
<path d="M156.087 -4.66699L83.5098 246.04" stroke="url(#paint27_linear_183_381)" stroke-width="0.797221" stroke-miterlimit="10"/>
<path d="M161.63 -4.66699L89.0527 246.04" stroke="url(#paint28_linear_183_381)" stroke-width="0.797221" stroke-miterlimit="10"/>
<path d="M167.175 -4.66699L94.5977 246.04" stroke="url(#paint29_linear_183_381)" stroke-width="0.797221" stroke-miterlimit="10"/>
<path d="M172.716 -4.66699L100.139 246.04" stroke="url(#paint30_linear_183_381)" stroke-width="0.797221" stroke-miterlimit="10"/>
<path d="M178.259 -4.66699L105.682 246.04" stroke="url(#paint31_linear_183_381)" stroke-width="0.797221" stroke-miterlimit="10"/>
<path d="M183.802 -4.66699L111.225 246.04" stroke="url(#paint32_linear_183_381)" stroke-width="0.797221" stroke-miterlimit="10"/>
<path d="M189.345 -4.66699L116.768 246.04" stroke="url(#paint33_linear_183_381)" stroke-width="0.797221" stroke-miterlimit="10"/>
<path d="M194.888 -4.66699L122.311 246.04" stroke="url(#paint34_linear_183_381)" stroke-width="0.797221" stroke-miterlimit="10"/>
<path d="M200.441 -4.66699L127.854 246.04" stroke="url(#paint35_linear_183_381)" stroke-width="0.797221" stroke-miterlimit="10"/>
<path d="M205.984 -4.66699L133.396 246.04" stroke="url(#paint36_linear_183_381)" stroke-width="0.797221" stroke-miterlimit="10"/>
<path d="M211.527 -4.66699L138.939 246.04" stroke="url(#paint37_linear_183_381)" stroke-width="0.797221" stroke-miterlimit="10"/>
<path d="M217.07 -4.66699L144.482 246.04" stroke="url(#paint38_linear_183_381)" stroke-width="0.797221" stroke-miterlimit="10"/>
<path d="M222.613 -4.66699L150.025 246.04" stroke="url(#paint39_linear_183_381)" stroke-width="0.797221" stroke-miterlimit="10"/>
<path d="M228.157 -4.66699L155.58 246.04" stroke="url(#paint40_linear_183_381)" stroke-width="0.797221" stroke-miterlimit="10"/>
<path d="M233.698 -4.66699L161.121 246.04" stroke="url(#paint41_linear_183_381)" stroke-width="0.797221" stroke-miterlimit="10"/>
<path d="M239.241 -4.66699L166.664 246.04" stroke="url(#paint42_linear_183_381)" stroke-width="0.797221" stroke-miterlimit="10"/>
<path d="M244.784 -4.66699L172.207 246.04" stroke="url(#paint43_linear_183_381)" stroke-width="0.797221" stroke-miterlimit="10"/>
<path d="M250.325 -4.66699L177.748 246.04" stroke="url(#paint44_linear_183_381)" stroke-width="0.797221" stroke-miterlimit="10"/>
<path d="M255.868 -4.66699L183.291 246.04" stroke="url(#paint45_linear_183_381)" stroke-width="0.797221" stroke-miterlimit="10"/>
<path d="M261.413 -4.66699L188.836 246.04" stroke="url(#paint46_linear_183_381)" stroke-width="0.797221" stroke-miterlimit="10"/>
<path d="M266.954 -4.66699L194.377 246.04" stroke="url(#paint47_linear_183_381)" stroke-width="0.797221" stroke-miterlimit="10"/>
<path d="M272.497 -4.66699L199.92 246.04" stroke="url(#paint48_linear_183_381)" stroke-width="0.797221" stroke-miterlimit="10"/>
<path d="M278.042 -4.66699L205.465 246.04" stroke="url(#paint49_linear_183_381)" stroke-width="0.797221" stroke-miterlimit="10"/>
<path d="M283.593 -4.66699L211.006 246.04" stroke="url(#paint50_linear_183_381)" stroke-width="0.797221" stroke-miterlimit="10"/>
<path d="M289.136 -4.66699L216.549 246.04" stroke="url(#paint51_linear_183_381)" stroke-width="0.797221" stroke-miterlimit="10"/>
<path d="M294.679 -4.66699L222.092 246.04" stroke="url(#paint52_linear_183_381)" stroke-width="0.797221" stroke-miterlimit="10"/>
<path d="M300.222 -4.66699L227.635 246.04" stroke="url(#paint53_linear_183_381)" stroke-width="0.797221" stroke-miterlimit="10"/>
<path d="M305.765 -4.66699L233.178 246.04" stroke="url(#paint54_linear_183_381)" stroke-width="0.797221" stroke-miterlimit="10"/>
<path d="M311.308 -4.66699L238.73 246.04" stroke="url(#paint55_linear_183_381)" stroke-width="0.797221" stroke-miterlimit="10"/>
<path d="M316.851 -4.66699L244.273 246.04" stroke="url(#paint56_linear_183_381)" stroke-width="0.797221" stroke-miterlimit="10"/>
<path d="M322.394 -4.66699L249.816 246.04" stroke="url(#paint57_linear_183_381)" stroke-width="0.797221" stroke-miterlimit="10"/>
<path d="M327.937 -4.66699L255.359 246.04" stroke="url(#paint58_linear_183_381)" stroke-width="0.797221" stroke-miterlimit="10"/>
<path d="M333.478 -4.66699L260.9 246.04" stroke="url(#paint59_linear_183_381)" stroke-width="0.797221" stroke-miterlimit="10"/>
<path d="M339.023 -4.66699L266.445 246.04" stroke="url(#paint60_linear_183_381)" stroke-width="0.797221" stroke-miterlimit="10"/>
<path d="M344.566 -4.66699L271.988 246.04" stroke="url(#paint61_linear_183_381)" stroke-width="0.797221" stroke-miterlimit="10"/>
<path d="M350.107 -4.66699L277.529 246.04" stroke="url(#paint62_linear_183_381)" stroke-width="0.797221" stroke-miterlimit="10"/>
<path d="M355.65 -4.66699L283.072 246.04" stroke="url(#paint63_linear_183_381)" stroke-width="0.797221" stroke-miterlimit="10"/>
<path d="M361.195 -4.66699L288.617 246.04" stroke="url(#paint64_linear_183_381)" stroke-width="0.797221" stroke-miterlimit="10"/>
<path d="M366.746 -4.66699L294.158 246.04" stroke="url(#paint65_linear_183_381)" stroke-width="0.797221" stroke-miterlimit="10"/>
<path d="M372.289 -4.66699L299.701 246.04" stroke="url(#paint66_linear_183_381)" stroke-width="0.797221" stroke-miterlimit="10"/>
<path d="M377.832 -4.66699L305.244 246.04" stroke="url(#paint67_linear_183_381)" stroke-width="0.797221" stroke-miterlimit="10"/>
<path d="M383.375 -4.66699L310.787 246.04" stroke="url(#paint68_linear_183_381)" stroke-width="0.797221" stroke-miterlimit="10"/>
<path d="M388.918 -4.66699L316.33 246.04" stroke="url(#paint69_linear_183_381)" stroke-width="0.797221" stroke-miterlimit="10"/>
<path d="M394.462 -4.66699L321.885 246.04" stroke="url(#paint70_linear_183_381)" stroke-width="0.797221" stroke-miterlimit="10"/>
<path d="M400.003 -4.66699L327.426 246.04" stroke="url(#paint71_linear_183_381)" stroke-width="0.797221" stroke-miterlimit="10"/>
<path d="M405.546 -4.66699L332.969 246.04" stroke="url(#paint72_linear_183_381)" stroke-width="0.797221" stroke-miterlimit="10"/>
<path d="M411.091 -4.66699L338.514 246.04" stroke="url(#paint73_linear_183_381)" stroke-width="0.797221" stroke-miterlimit="10"/>
<path d="M416.63 -4.66699L344.053 246.04" stroke="url(#paint74_linear_183_381)" stroke-width="0.797221" stroke-miterlimit="10"/>
<path d="M422.173 -4.66699L349.596 246.04" stroke="url(#paint75_linear_183_381)" stroke-width="0.797221" stroke-miterlimit="10"/>
<path d="M427.72 -4.66699L355.143 246.04" stroke="url(#paint76_linear_183_381)" stroke-width="0.797221" stroke-miterlimit="10"/>
<path d="M433.261 -4.66699L360.684 246.04" stroke="url(#paint77_linear_183_381)" stroke-width="0.797221" stroke-miterlimit="10"/>
<path d="M438.804 -4.66699L366.227 246.04" stroke="url(#paint78_linear_183_381)" stroke-width="0.797221" stroke-miterlimit="10"/>
<path d="M444.347 -4.66699L371.77 246.04" stroke="url(#paint79_linear_183_381)" stroke-width="0.797221" stroke-miterlimit="10"/>
<path d="M449.898 -4.66699L377.311 246.04" stroke="url(#paint80_linear_183_381)" stroke-width="0.797221" stroke-miterlimit="10"/>
<path d="M455.441 -4.66699L382.854 246.04" stroke="url(#paint81_linear_183_381)" stroke-width="0.797221" stroke-miterlimit="10"/>
<path d="M460.986 -4.66699L388.398 246.04" stroke="url(#paint82_linear_183_381)" stroke-width="0.797221" stroke-miterlimit="10"/>
<path d="M466.527 -4.66699L393.939 246.04" stroke="url(#paint83_linear_183_381)" stroke-width="0.797221" stroke-miterlimit="10"/>
<path d="M472.072 -4.66699L399.484 246.04" stroke="url(#paint84_linear_183_381)" stroke-width="0.797221" stroke-miterlimit="10"/>
<path d="M477.614 -4.66699L405.037 246.04" stroke="url(#paint85_linear_183_381)" stroke-width="0.797221" stroke-miterlimit="10"/>
<path d="M483.156 -4.66699L410.578 246.04" stroke="url(#paint86_linear_183_381)" stroke-width="0.797221" stroke-miterlimit="10"/>
<path d="M488.7 -4.66699L416.123 246.04" stroke="url(#paint87_linear_183_381)" stroke-width="0.797221" stroke-miterlimit="10"/>
<path d="M494.243 -4.66699L421.666 246.04" stroke="url(#paint88_linear_183_381)" stroke-width="0.797221" stroke-miterlimit="10"/>
<path d="M499.784 -4.66699L427.207 246.04" stroke="url(#paint89_linear_183_381)" stroke-width="0.797221" stroke-miterlimit="10"/>
<path d="M505.327 -4.66699L432.75 246.04" stroke="url(#paint90_linear_183_381)" stroke-width="0.797221" stroke-miterlimit="10"/>
<path d="M510.87 -4.66699L438.293 246.04" stroke="url(#paint91_linear_183_381)" stroke-width="0.797221" stroke-miterlimit="10"/>
<path d="M516.413 -4.66699L443.836 246.04" stroke="url(#paint92_linear_183_381)" stroke-width="0.797221" stroke-miterlimit="10"/>
<path d="M521.956 -4.66699L449.379 246.04" stroke="url(#paint93_linear_183_381)" stroke-width="0.797221" stroke-miterlimit="10"/>
<path d="M527.499 -4.66699L454.922 246.04" stroke="url(#paint94_linear_183_381)" stroke-width="0.797221" stroke-miterlimit="10"/>
<path d="M533.052 -4.66699L460.465 246.04" stroke="url(#paint95_linear_183_381)" stroke-width="0.797221" stroke-miterlimit="10"/>
</g>
</g>
<path d="M194.204 57.5371L185.609 31.8588H191.553L197.425 52.0384H197.532L203.387 31.8588H209.348L200.753 57.5371H194.204ZM223.21 57.982C220.672 57.982 218.471 57.4422 216.608 56.3626C214.758 55.2831 213.328 53.7527 212.32 51.7715C211.323 49.7784 210.825 47.4236 210.825 44.7068V44.6712C210.825 41.9427 211.329 39.5878 212.338 37.6066C213.346 35.6254 214.776 34.1009 216.626 33.0332C218.489 31.9537 220.684 31.4139 223.21 31.4139C225.749 31.4139 227.944 31.9537 229.795 33.0332C231.645 34.1128 233.075 35.6432 234.083 37.6244C235.092 39.5937 235.596 41.9427 235.596 44.6712V44.7068C235.596 47.4236 235.092 49.7784 234.083 51.7715C233.075 53.7527 231.645 55.2831 229.795 56.3626C227.956 57.4422 225.761 57.982 223.21 57.982ZM223.21 53.4264C224.634 53.4264 225.862 53.0705 226.894 52.3587C227.926 51.6351 228.721 50.6207 229.279 49.3158C229.836 48.0108 230.115 46.4745 230.115 44.7068V44.6712C230.115 42.8799 229.83 41.3376 229.261 40.0445C228.703 38.7395 227.902 37.7371 226.858 37.0371C225.826 36.3253 224.61 35.9694 223.21 35.9694C221.811 35.9694 220.589 36.3194 219.545 37.0193C218.513 37.7193 217.712 38.7217 217.142 40.0267C216.585 41.3198 216.306 42.868 216.306 44.6712V44.7068C216.306 46.4863 216.585 48.0286 217.142 49.3336C217.712 50.6385 218.513 51.6469 219.545 52.3587C220.577 53.0705 221.799 53.4264 223.21 53.4264ZM249.832 57.982C247.637 57.982 245.733 57.5846 244.12 56.7897C242.518 55.9949 241.272 54.8856 240.383 53.462C239.505 52.0266 239.066 50.3597 239.066 48.4616V31.8588H244.44V47.9811C244.44 49.0844 244.648 50.0454 245.063 50.8639C245.49 51.6707 246.101 52.2994 246.896 52.7502C247.702 53.201 248.681 53.4264 249.832 53.4264C250.983 53.4264 251.955 53.201 252.75 52.7502C253.557 52.2994 254.168 51.6707 254.583 50.8639C254.998 50.0454 255.206 49.0844 255.206 47.9811V31.8588H260.58V48.4616C260.58 50.3597 260.141 52.0266 259.263 53.462C258.397 54.8856 257.158 55.9949 255.544 56.7897C253.943 57.5846 252.039 57.982 249.832 57.982ZM276.293 57.982C273.79 57.982 271.619 57.4481 269.78 56.3804C267.953 55.3127 266.542 53.7883 265.545 51.8071C264.56 49.814 264.068 47.4413 264.068 44.689V44.6712C264.068 41.9071 264.566 39.5403 265.563 37.571C266.559 35.5898 267.971 34.0713 269.798 33.0154C271.625 31.9477 273.79 31.4139 276.293 31.4139C278.369 31.4139 280.22 31.8172 281.845 32.6239C283.471 33.4307 284.776 34.5399 285.76 35.9516C286.745 37.3515 287.32 38.9649 287.486 40.7919L287.504 40.9521H282.272L282.201 40.6495C282 39.7005 281.638 38.876 281.116 38.176C280.594 37.4761 279.923 36.9363 279.105 36.5567C278.298 36.1652 277.361 35.9694 276.293 35.9694C274.917 35.9694 273.725 36.3194 272.716 37.0193C271.708 37.7193 270.925 38.7217 270.367 40.0267C269.822 41.3198 269.549 42.8621 269.549 44.6534V44.6712C269.549 46.4745 269.822 48.0345 270.367 49.3514C270.925 50.6563 271.708 51.6647 272.716 52.3765C273.737 53.0765 274.929 53.4264 276.293 53.4264C277.325 53.4264 278.245 53.2366 279.052 52.857C279.87 52.4774 280.552 51.9316 281.098 51.2198C281.644 50.4962 282.029 49.6242 282.255 48.604L282.29 48.426H287.522L287.504 48.6218C287.338 50.4369 286.757 52.0503 285.76 53.462C284.776 54.8738 283.471 55.983 281.845 56.7897C280.22 57.5846 278.369 57.982 276.293 57.982ZM290.85 57.5371V31.8588H296.224V42.2867H307.791V31.8588H313.165V57.5371H307.791V46.7177H296.224V57.5371H290.85ZM317.436 57.5371V31.8588H334.448V36.2897H322.81V42.4469H333.789V46.6465H322.81V53.1061H334.448V57.5371H317.436ZM338.327 57.5371V31.8588H348.933C350.855 31.8588 352.498 32.185 353.862 32.8375C355.238 33.49 356.288 34.4331 357.012 35.6669C357.747 36.8888 358.115 38.3599 358.115 40.0801V40.1157C358.115 41.8003 357.694 43.301 356.852 44.6179C356.021 45.9347 354.894 46.8719 353.471 47.4295L358.88 57.5371H352.794L348.008 48.2303C347.972 48.2303 347.93 48.2303 347.883 48.2303C347.836 48.2303 347.788 48.2303 347.741 48.2303H343.701V57.5371H338.327ZM343.701 44.1552H348.346C349.686 44.1552 350.73 43.7993 351.478 43.0875C352.237 42.3638 352.617 41.3732 352.617 40.1157V40.0801C352.617 38.8463 352.225 37.8676 351.442 37.1439C350.659 36.4202 349.603 36.0584 348.275 36.0584H343.701V44.1552ZM379.665 57.982C377.47 57.982 375.566 57.5846 373.953 56.7897C372.351 55.9949 371.106 54.8856 370.216 53.462C369.338 52.0266 368.899 50.3597 368.899 48.4616V31.8588H374.273V47.9811C374.273 49.0844 374.481 50.0454 374.896 50.8639C375.323 51.6707 375.934 52.2994 376.729 52.7502C377.536 53.201 378.514 53.4264 379.665 53.4264C380.816 53.4264 381.789 53.201 382.583 52.7502C383.39 52.2994 384.001 51.6707 384.416 50.8639C384.832 50.0454 385.039 49.0844 385.039 47.9811V31.8588H390.413V48.4616C390.413 50.3597 389.974 52.0266 389.096 53.462C388.23 54.8856 386.991 55.9949 385.377 56.7897C383.776 57.5846 381.872 57.982 379.665 57.982ZM397.407 49.4403V45.2407H403.706C405.249 45.2407 406.447 44.8492 407.301 44.0662C408.167 43.2714 408.6 42.1443 408.6 40.6851V40.6495C408.6 39.1903 408.167 38.0693 407.301 37.2863C406.447 36.5033 405.249 36.1118 403.706 36.1118H397.407V31.8588H405.023C406.826 31.8588 408.404 32.2265 409.757 32.9621C411.109 33.6857 412.159 34.706 412.906 36.0228C413.666 37.3397 414.045 38.876 414.045 40.6317V40.6673C414.045 42.435 413.666 43.9772 412.906 45.2941C412.159 46.6109 411.109 47.6312 409.757 48.3548C408.404 49.0785 406.826 49.4403 405.023 49.4403H397.407ZM394.702 57.5371V31.8588H400.076V57.5371H394.702ZM430.595 57.5371V36.2897H423.174V31.8588H443.407V36.2897H435.969V57.5371H430.595ZM456.54 57.982C454.001 57.982 451.801 57.4422 449.938 56.3626C448.087 55.2831 446.658 53.7527 445.649 51.7715C444.653 49.7784 444.155 47.4236 444.155 44.7068V44.6712C444.155 41.9427 444.659 39.5878 445.667 37.6066C446.676 35.6254 448.105 34.1009 449.956 33.0332C451.818 31.9537 454.013 31.4139 456.54 31.4139C459.079 31.4139 461.273 31.9537 463.124 33.0332C464.975 34.1128 466.404 35.6432 467.413 37.6244C468.421 39.5937 468.925 41.9427 468.925 44.6712V44.7068C468.925 47.4236 468.421 49.7784 467.413 51.7715C466.404 53.7527 464.975 55.2831 463.124 56.3626C461.285 57.4422 459.091 57.982 456.54 57.982ZM456.54 53.4264C457.964 53.4264 459.191 53.0705 460.224 52.3587C461.256 51.6351 462.051 50.6207 462.608 49.3158C463.166 48.0108 463.444 46.4745 463.444 44.7068V44.6712C463.444 42.8799 463.16 41.3376 462.59 40.0445C462.033 38.7395 461.232 37.7371 460.188 37.0371C459.156 36.3253 457.94 35.9694 456.54 35.9694C455.14 35.9694 453.918 36.3194 452.874 37.0193C451.842 37.7193 451.041 38.7217 450.472 40.0267C449.914 41.3198 449.635 42.868 449.635 44.6712V44.7068C449.635 46.4863 449.914 48.0286 450.472 49.3336C451.041 50.6385 451.842 51.6469 452.874 52.3587C453.906 53.0705 455.128 53.4264 456.54 53.4264Z" fill="url(#paint96_linear_183_381)"/>
<defs>
<linearGradient id="paint0_linear_183_381" x1="327.622" y1="-48.5925" x2="328.001" y2="316.574" gradientUnits="userSpaceOnUse">
<stop stop-color="#E5D8C6"/>
<stop offset="1" stop-color="white"/>
</linearGradient>
<linearGradient id="paint1_linear_183_381" x1="81.6203" y1="0" x2="81.6203" y2="258.148" gradientUnits="userSpaceOnUse">
<stop stop-color="#D5C578"/>
<stop offset="1" stop-color="#AC925A"/>
</linearGradient>
<linearGradient id="paint2_linear_183_381" x1="318.352" y1="80.4628" x2="318.352" y2="163.341" gradientUnits="userSpaceOnUse">
<stop stop-color="#8F6E45"/>
<stop offset="1" stop-color="#D6C679"/>
</linearGradient>
<linearGradient id="paint3_linear_183_381" x1="-50.0373" y1="120.693" x2="23.5404" y2="120.693" gradientUnits="userSpaceOnUse">
<stop stop-color="#F4EB8E"/>
<stop offset="0.99" stop-color="#8F6E45"/>
</linearGradient>
<linearGradient id="paint4_linear_183_381" x1="-44.4953" y1="-4.90268" x2="29.0824" y2="-4.90268" gradientUnits="userSpaceOnUse">
<stop stop-color="#F4EB8E"/>
<stop offset="0.99" stop-color="#8F6E45"/>
</linearGradient>
<linearGradient id="paint5_linear_183_381" x1="-38.9523" y1="-4.90268" x2="34.6356" y2="-4.90268" gradientUnits="userSpaceOnUse">
<stop stop-color="#F4EB8E"/>
<stop offset="0.99" stop-color="#8F6E45"/>
</linearGradient>
<linearGradient id="paint6_linear_183_381" x1="-33.4103" y1="-4.90268" x2="40.1776" y2="-4.90268" gradientUnits="userSpaceOnUse">
<stop stop-color="#F4EB8E"/>
<stop offset="0.99" stop-color="#8F6E45"/>
</linearGradient>
<linearGradient id="paint7_linear_183_381" x1="-27.8654" y1="-4.90268" x2="45.7225" y2="-4.90268" gradientUnits="userSpaceOnUse">
<stop stop-color="#F4EB8E"/>
<stop offset="0.99" stop-color="#8F6E45"/>
</linearGradient>
<linearGradient id="paint8_linear_183_381" x1="-22.3234" y1="-4.90268" x2="51.2645" y2="-4.90268" gradientUnits="userSpaceOnUse">
<stop stop-color="#F4EB8E"/>
<stop offset="0.99" stop-color="#8F6E45"/>
</linearGradient>
<linearGradient id="paint9_linear_183_381" x1="-16.7814" y1="-4.90268" x2="56.8065" y2="-4.90268" gradientUnits="userSpaceOnUse">
<stop stop-color="#F4EB8E"/>
<stop offset="0.99" stop-color="#8F6E45"/>
</linearGradient>
<linearGradient id="paint10_linear_183_381" x1="-11.2385" y1="-4.90268" x2="62.3495" y2="-4.90268" gradientUnits="userSpaceOnUse">
<stop stop-color="#F4EB8E"/>
<stop offset="0.99" stop-color="#8F6E45"/>
</linearGradient>
<linearGradient id="paint11_linear_183_381" x1="-5.68475" y1="-4.90268" x2="67.893" y2="-4.90268" gradientUnits="userSpaceOnUse">
<stop stop-color="#F4EB8E"/>
<stop offset="0.99" stop-color="#8F6E45"/>
</linearGradient>
<linearGradient id="paint12_linear_183_381" x1="-0.14276" y1="-4.90268" x2="73.435" y2="-4.90268" gradientUnits="userSpaceOnUse">
<stop stop-color="#F4EB8E"/>
<stop offset="0.99" stop-color="#8F6E45"/>
</linearGradient>
<linearGradient id="paint13_linear_183_381" x1="5.39923" y1="-4.90268" x2="78.977" y2="-4.90268" gradientUnits="userSpaceOnUse">
<stop stop-color="#F4EB8E"/>
<stop offset="0.99" stop-color="#8F6E45"/>
</linearGradient>
<linearGradient id="paint14_linear_183_381" x1="10.9442" y1="-4.90268" x2="84.5219" y2="-4.90268" gradientUnits="userSpaceOnUse">
<stop stop-color="#F4EB8E"/>
<stop offset="0.99" stop-color="#8F6E45"/>
</linearGradient>
<linearGradient id="paint15_linear_183_381" x1="16.4861" y1="-4.90268" x2="90.0639" y2="-4.90268" gradientUnits="userSpaceOnUse">
<stop stop-color="#F4EB8E"/>
<stop offset="0.99" stop-color="#8F6E45"/>
</linearGradient>
<linearGradient id="paint16_linear_183_381" x1="22.0281" y1="-4.90268" x2="95.6059" y2="-4.90268" gradientUnits="userSpaceOnUse">
<stop stop-color="#F4EB8E"/>
<stop offset="0.99" stop-color="#8F6E45"/>
</linearGradient>
<linearGradient id="paint17_linear_183_381" x1="27.5711" y1="-4.90268" x2="101.149" y2="-4.90268" gradientUnits="userSpaceOnUse">
<stop stop-color="#F4EB8E"/>
<stop offset="0.99" stop-color="#8F6E45"/>
</linearGradient>
<linearGradient id="paint18_linear_183_381" x1="33.1131" y1="-4.90268" x2="106.691" y2="-4.90268" gradientUnits="userSpaceOnUse">
<stop stop-color="#F4EB8E"/>
<stop offset="0.99" stop-color="#8F6E45"/>
</linearGradient>
<linearGradient id="paint19_linear_183_381" x1="38.657" y1="-4.90268" x2="112.235" y2="-4.90268" gradientUnits="userSpaceOnUse">
<stop stop-color="#F4EB8E"/>
<stop offset="0.99" stop-color="#8F6E45"/>
</linearGradient>
<linearGradient id="paint20_linear_183_381" x1="44.202" y1="-4.90268" x2="117.79" y2="-4.90268" gradientUnits="userSpaceOnUse">
<stop stop-color="#F4EB8E"/>
<stop offset="0.99" stop-color="#8F6E45"/>
</linearGradient>
<linearGradient id="paint21_linear_183_381" x1="49.744" y1="-4.90268" x2="123.332" y2="-4.90268" gradientUnits="userSpaceOnUse">
<stop stop-color="#F4EB8E"/>
<stop offset="0.99" stop-color="#8F6E45"/>
</linearGradient>
<linearGradient id="paint22_linear_183_381" x1="55.2869" y1="-4.90268" x2="128.875" y2="-4.90268" gradientUnits="userSpaceOnUse">
<stop stop-color="#F4EB8E"/>
<stop offset="0.99" stop-color="#8F6E45"/>
</linearGradient>
<linearGradient id="paint23_linear_183_381" x1="60.8279" y1="-4.90268" x2="134.416" y2="-4.90268" gradientUnits="userSpaceOnUse">
<stop stop-color="#F4EB8E"/>
<stop offset="0.99" stop-color="#8F6E45"/>
</linearGradient>
<linearGradient id="paint24_linear_183_381" x1="66.3709" y1="-4.90268" x2="139.959" y2="-4.90268" gradientUnits="userSpaceOnUse">
<stop stop-color="#F4EB8E"/>
<stop offset="0.99" stop-color="#8F6E45"/>
</linearGradient>
<linearGradient id="paint25_linear_183_381" x1="71.9139" y1="-4.90268" x2="145.502" y2="-4.90268" gradientUnits="userSpaceOnUse">
<stop stop-color="#F4EB8E"/>
<stop offset="0.99" stop-color="#8F6E45"/>
</linearGradient>
<linearGradient id="paint26_linear_183_381" x1="77.4666" y1="-4.90268" x2="151.044" y2="-4.90268" gradientUnits="userSpaceOnUse">
<stop stop-color="#F4EB8E"/>
<stop offset="0.99" stop-color="#8F6E45"/>
</linearGradient>
<linearGradient id="paint27_linear_183_381" x1="83.0096" y1="-4.90268" x2="156.587" y2="-4.90268" gradientUnits="userSpaceOnUse">
<stop stop-color="#F4EB8E"/>
<stop offset="0.99" stop-color="#8F6E45"/>
</linearGradient>
<linearGradient id="paint28_linear_183_381" x1="88.5526" y1="-4.90268" x2="162.13" y2="-4.90268" gradientUnits="userSpaceOnUse">
<stop stop-color="#F4EB8E"/>
<stop offset="0.99" stop-color="#8F6E45"/>
</linearGradient>
<linearGradient id="paint29_linear_183_381" x1="94.0975" y1="-4.90268" x2="167.675" y2="-4.90268" gradientUnits="userSpaceOnUse">
<stop stop-color="#F4EB8E"/>
<stop offset="0.99" stop-color="#8F6E45"/>
</linearGradient>
<linearGradient id="paint30_linear_183_381" x1="99.6385" y1="-4.90268" x2="173.216" y2="-4.90268" gradientUnits="userSpaceOnUse">
<stop stop-color="#F4EB8E"/>
<stop offset="0.99" stop-color="#8F6E45"/>
</linearGradient>
<linearGradient id="paint31_linear_183_381" x1="105.181" y1="-4.90268" x2="178.759" y2="-4.90268" gradientUnits="userSpaceOnUse">
<stop stop-color="#F4EB8E"/>
<stop offset="0.99" stop-color="#8F6E45"/>
</linearGradient>
<linearGradient id="paint32_linear_183_381" x1="110.724" y1="-4.90268" x2="184.302" y2="-4.90268" gradientUnits="userSpaceOnUse">
<stop stop-color="#F4EB8E"/>
<stop offset="0.99" stop-color="#8F6E45"/>
</linearGradient>
<linearGradient id="paint33_linear_183_381" x1="116.267" y1="-4.90268" x2="189.845" y2="-4.90268" gradientUnits="userSpaceOnUse">
<stop stop-color="#F4EB8E"/>
<stop offset="0.99" stop-color="#8F6E45"/>
</linearGradient>
<linearGradient id="paint34_linear_183_381" x1="121.81" y1="-4.90268" x2="195.388" y2="-4.90268" gradientUnits="userSpaceOnUse">
<stop stop-color="#F4EB8E"/>
<stop offset="0.99" stop-color="#8F6E45"/>
</linearGradient>
<linearGradient id="paint35_linear_183_381" x1="127.353" y1="-4.90268" x2="200.941" y2="-4.90268" gradientUnits="userSpaceOnUse">
<stop stop-color="#F4EB8E"/>
<stop offset="0.99" stop-color="#8F6E45"/>
</linearGradient>
<linearGradient id="paint36_linear_183_381" x1="132.896" y1="-4.90268" x2="206.484" y2="-4.90268" gradientUnits="userSpaceOnUse">
<stop stop-color="#F4EB8E"/>
<stop offset="0.99" stop-color="#8F6E45"/>
</linearGradient>
<linearGradient id="paint37_linear_183_381" x1="138.439" y1="-4.90268" x2="212.027" y2="-4.90268" gradientUnits="userSpaceOnUse">
<stop stop-color="#F4EB8E"/>
<stop offset="0.99" stop-color="#8F6E45"/>
</linearGradient>
<linearGradient id="paint38_linear_183_381" x1="143.982" y1="-4.90268" x2="217.57" y2="-4.90268" gradientUnits="userSpaceOnUse">
<stop stop-color="#F4EB8E"/>
<stop offset="0.99" stop-color="#8F6E45"/>
</linearGradient>
<linearGradient id="paint39_linear_183_381" x1="149.525" y1="-4.90268" x2="223.113" y2="-4.90268" gradientUnits="userSpaceOnUse">
<stop stop-color="#F4EB8E"/>
<stop offset="0.99" stop-color="#8F6E45"/>
</linearGradient>
<linearGradient id="paint40_linear_183_381" x1="155.07" y1="-4.90268" x2="228.658" y2="-4.90268" gradientUnits="userSpaceOnUse">
<stop stop-color="#F4EB8E"/>
<stop offset="0.99" stop-color="#8F6E45"/>
</linearGradient>
<linearGradient id="paint41_linear_183_381" x1="160.621" y1="-4.90268" x2="234.199" y2="-4.90268" gradientUnits="userSpaceOnUse">
<stop stop-color="#F4EB8E"/>
<stop offset="0.99" stop-color="#8F6E45"/>
</linearGradient>
<linearGradient id="paint42_linear_183_381" x1="166.164" y1="-4.90268" x2="239.742" y2="-4.90268" gradientUnits="userSpaceOnUse">
<stop stop-color="#F4EB8E"/>
<stop offset="0.99" stop-color="#8F6E45"/>
</linearGradient>
<linearGradient id="paint43_linear_183_381" x1="171.707" y1="-4.90268" x2="245.285" y2="-4.90268" gradientUnits="userSpaceOnUse">
<stop stop-color="#F4EB8E"/>
<stop offset="0.99" stop-color="#8F6E45"/>
</linearGradient>
<linearGradient id="paint44_linear_183_381" x1="177.248" y1="-4.90268" x2="250.826" y2="-4.90268" gradientUnits="userSpaceOnUse">
<stop stop-color="#F4EB8E"/>
<stop offset="0.99" stop-color="#8F6E45"/>
</linearGradient>
<linearGradient id="paint45_linear_183_381" x1="182.791" y1="-4.90268" x2="256.369" y2="-4.90268" gradientUnits="userSpaceOnUse">
<stop stop-color="#F4EB8E"/>
<stop offset="0.99" stop-color="#8F6E45"/>
</linearGradient>
<linearGradient id="paint46_linear_183_381" x1="188.336" y1="-4.90268" x2="261.913" y2="-4.90268" gradientUnits="userSpaceOnUse">
<stop stop-color="#F4EB8E"/>
<stop offset="0.99" stop-color="#8F6E45"/>
</linearGradient>
<linearGradient id="paint47_linear_183_381" x1="193.877" y1="-4.90268" x2="267.455" y2="-4.90268" gradientUnits="userSpaceOnUse">
<stop stop-color="#F4EB8E"/>
<stop offset="0.99" stop-color="#8F6E45"/>
</linearGradient>
<linearGradient id="paint48_linear_183_381" x1="199.42" y1="-4.90268" x2="272.997" y2="-4.90268" gradientUnits="userSpaceOnUse">
<stop stop-color="#F4EB8E"/>
<stop offset="0.99" stop-color="#8F6E45"/>
</linearGradient>
<linearGradient id="paint49_linear_183_381" x1="204.965" y1="-4.90268" x2="278.542" y2="-4.90268" gradientUnits="userSpaceOnUse">
<stop stop-color="#F4EB8E"/>
<stop offset="0.99" stop-color="#8F6E45"/>
</linearGradient>
<linearGradient id="paint50_linear_183_381" x1="210.506" y1="-4.90268" x2="284.094" y2="-4.90268" gradientUnits="userSpaceOnUse">
<stop stop-color="#F4EB8E"/>
<stop offset="0.99" stop-color="#8F6E45"/>
</linearGradient>
<linearGradient id="paint51_linear_183_381" x1="216.049" y1="-4.90268" x2="289.637" y2="-4.90268" gradientUnits="userSpaceOnUse">
<stop stop-color="#F4EB8E"/>
<stop offset="0.99" stop-color="#8F6E45"/>
</linearGradient>
<linearGradient id="paint52_linear_183_381" x1="221.592" y1="-4.90268" x2="295.18" y2="-4.90268" gradientUnits="userSpaceOnUse">
<stop stop-color="#F4EB8E"/>
<stop offset="0.99" stop-color="#8F6E45"/>
</linearGradient>
<linearGradient id="paint53_linear_183_381" x1="227.135" y1="-4.90268" x2="300.723" y2="-4.90268" gradientUnits="userSpaceOnUse">
<stop stop-color="#F4EB8E"/>
<stop offset="0.99" stop-color="#8F6E45"/>
</linearGradient>
<linearGradient id="paint54_linear_183_381" x1="232.678" y1="-4.90268" x2="306.265" y2="-4.90268" gradientUnits="userSpaceOnUse">
<stop stop-color="#F4EB8E"/>
<stop offset="0.99" stop-color="#8F6E45"/>
</linearGradient>
<linearGradient id="paint55_linear_183_381" x1="238.22" y1="-4.90268" x2="311.808" y2="-4.90268" gradientUnits="userSpaceOnUse">
<stop stop-color="#F4EB8E"/>
<stop offset="0.99" stop-color="#8F6E45"/>
</linearGradient>
<linearGradient id="paint56_linear_183_381" x1="243.773" y1="-4.90268" x2="317.351" y2="-4.90268" gradientUnits="userSpaceOnUse">
<stop stop-color="#F4EB8E"/>
<stop offset="0.99" stop-color="#8F6E45"/>
</linearGradient>
<linearGradient id="paint57_linear_183_381" x1="249.316" y1="-4.90268" x2="322.894" y2="-4.90268" gradientUnits="userSpaceOnUse">
<stop stop-color="#F4EB8E"/>
<stop offset="0.99" stop-color="#8F6E45"/>
</linearGradient>
<linearGradient id="paint58_linear_183_381" x1="254.859" y1="-4.90268" x2="328.437" y2="-4.90268" gradientUnits="userSpaceOnUse">
<stop stop-color="#F4EB8E"/>
<stop offset="0.99" stop-color="#8F6E45"/>
</linearGradient>
<linearGradient id="paint59_linear_183_381" x1="260.4" y1="-4.90268" x2="333.978" y2="-4.90268" gradientUnits="userSpaceOnUse">
<stop stop-color="#F4EB8E"/>
<stop offset="0.99" stop-color="#8F6E45"/>
</linearGradient>
<linearGradient id="paint60_linear_183_381" x1="265.945" y1="-4.90268" x2="339.523" y2="-4.90268" gradientUnits="userSpaceOnUse">
<stop stop-color="#F4EB8E"/>
<stop offset="0.99" stop-color="#8F6E45"/>
</linearGradient>
<linearGradient id="paint61_linear_183_381" x1="271.488" y1="-4.90268" x2="345.066" y2="-4.90268" gradientUnits="userSpaceOnUse">
<stop stop-color="#F4EB8E"/>
<stop offset="0.99" stop-color="#8F6E45"/>
</linearGradient>
<linearGradient id="paint62_linear_183_381" x1="277.029" y1="-4.90268" x2="350.607" y2="-4.90268" gradientUnits="userSpaceOnUse">
<stop stop-color="#F4EB8E"/>
<stop offset="0.99" stop-color="#8F6E45"/>
</linearGradient>
<linearGradient id="paint63_linear_183_381" x1="282.572" y1="-4.90268" x2="356.15" y2="-4.90268" gradientUnits="userSpaceOnUse">
<stop stop-color="#F4EB8E"/>
<stop offset="0.99" stop-color="#8F6E45"/>
</linearGradient>
<linearGradient id="paint64_linear_183_381" x1="288.117" y1="-4.90268" x2="361.695" y2="-4.90268" gradientUnits="userSpaceOnUse">
<stop stop-color="#F4EB8E"/>
<stop offset="0.99" stop-color="#8F6E45"/>
</linearGradient>
<linearGradient id="paint65_linear_183_381" x1="293.658" y1="-4.90268" x2="367.246" y2="-4.90268" gradientUnits="userSpaceOnUse">
<stop stop-color="#F4EB8E"/>
<stop offset="0.99" stop-color="#8F6E45"/>
</linearGradient>
<linearGradient id="paint66_linear_183_381" x1="299.201" y1="-4.90268" x2="372.789" y2="-4.90268" gradientUnits="userSpaceOnUse">
<stop stop-color="#F4EB8E"/>
<stop offset="0.99" stop-color="#8F6E45"/>
</linearGradient>
<linearGradient id="paint67_linear_183_381" x1="304.744" y1="-4.90268" x2="378.332" y2="-4.90268" gradientUnits="userSpaceOnUse">
<stop stop-color="#F4EB8E"/>
<stop offset="0.99" stop-color="#8F6E45"/>
</linearGradient>
<linearGradient id="paint68_linear_183_381" x1="310.287" y1="-4.90268" x2="383.875" y2="-4.90268" gradientUnits="userSpaceOnUse">
<stop stop-color="#F4EB8E"/>
<stop offset="0.99" stop-color="#8F6E45"/>
</linearGradient>
<linearGradient id="paint69_linear_183_381" x1="315.83" y1="-4.90268" x2="389.418" y2="-4.90268" gradientUnits="userSpaceOnUse">
<stop stop-color="#F4EB8E"/>
<stop offset="0.99" stop-color="#8F6E45"/>
</linearGradient>
<linearGradient id="paint70_linear_183_381" x1="321.374" y1="-4.90268" x2="394.962" y2="-4.90268" gradientUnits="userSpaceOnUse">
<stop stop-color="#F4EB8E"/>
<stop offset="0.99" stop-color="#8F6E45"/>
</linearGradient>
<linearGradient id="paint71_linear_183_381" x1="326.926" y1="-4.90268" x2="400.503" y2="-4.90268" gradientUnits="userSpaceOnUse">
<stop stop-color="#F4EB8E"/>
<stop offset="0.99" stop-color="#8F6E45"/>
</linearGradient>
<linearGradient id="paint72_linear_183_381" x1="332.469" y1="-4.90268" x2="406.046" y2="-4.90268" gradientUnits="userSpaceOnUse">
<stop stop-color="#F4EB8E"/>
<stop offset="0.99" stop-color="#8F6E45"/>
</linearGradient>
<linearGradient id="paint73_linear_183_381" x1="338.013" y1="-4.90268" x2="411.591" y2="-4.90268" gradientUnits="userSpaceOnUse">
<stop stop-color="#F4EB8E"/>
<stop offset="0.99" stop-color="#8F6E45"/>
</linearGradient>
<linearGradient id="paint74_linear_183_381" x1="343.553" y1="-4.90268" x2="417.13" y2="-4.90268" gradientUnits="userSpaceOnUse">
<stop stop-color="#F4EB8E"/>
<stop offset="0.99" stop-color="#8F6E45"/>
</linearGradient>
<linearGradient id="paint75_linear_183_381" x1="349.096" y1="-4.90268" x2="422.673" y2="-4.90268" gradientUnits="userSpaceOnUse">
<stop stop-color="#F4EB8E"/>
<stop offset="0.99" stop-color="#8F6E45"/>
</linearGradient>
<linearGradient id="paint76_linear_183_381" x1="354.642" y1="-4.90268" x2="428.22" y2="-4.90268" gradientUnits="userSpaceOnUse">
<stop stop-color="#F4EB8E"/>
<stop offset="0.99" stop-color="#8F6E45"/>
</linearGradient>
<linearGradient id="paint77_linear_183_381" x1="360.183" y1="-4.90268" x2="433.761" y2="-4.90268" gradientUnits="userSpaceOnUse">
<stop stop-color="#F4EB8E"/>
<stop offset="0.99" stop-color="#8F6E45"/>
</linearGradient>
<linearGradient id="paint78_linear_183_381" x1="365.726" y1="-4.90268" x2="439.304" y2="-4.90268" gradientUnits="userSpaceOnUse">
<stop stop-color="#F4EB8E"/>
<stop offset="0.99" stop-color="#8F6E45"/>
</linearGradient>
<linearGradient id="paint79_linear_183_381" x1="371.269" y1="-4.90268" x2="444.847" y2="-4.90268" gradientUnits="userSpaceOnUse">
<stop stop-color="#F4EB8E"/>
<stop offset="0.99" stop-color="#8F6E45"/>
</linearGradient>
<linearGradient id="paint80_linear_183_381" x1="376.81" y1="-4.90268" x2="450.398" y2="-4.90268" gradientUnits="userSpaceOnUse">
<stop stop-color="#F4EB8E"/>
<stop offset="0.99" stop-color="#8F6E45"/>
</linearGradient>
<linearGradient id="paint81_linear_183_381" x1="382.353" y1="-4.90268" x2="455.941" y2="-4.90268" gradientUnits="userSpaceOnUse">
<stop stop-color="#F4EB8E"/>
<stop offset="0.99" stop-color="#8F6E45"/>
</linearGradient>
<linearGradient id="paint82_linear_183_381" x1="387.898" y1="-4.90268" x2="461.486" y2="-4.90268" gradientUnits="userSpaceOnUse">
<stop stop-color="#F4EB8E"/>
<stop offset="0.99" stop-color="#8F6E45"/>
</linearGradient>
<linearGradient id="paint83_linear_183_381" x1="393.439" y1="-4.90268" x2="467.027" y2="-4.90268" gradientUnits="userSpaceOnUse">
<stop stop-color="#F4EB8E"/>
<stop offset="0.99" stop-color="#8F6E45"/>
</linearGradient>
<linearGradient id="paint84_linear_183_381" x1="398.984" y1="-4.90268" x2="472.572" y2="-4.90268" gradientUnits="userSpaceOnUse">
<stop stop-color="#F4EB8E"/>
<stop offset="0.99" stop-color="#8F6E45"/>
</linearGradient>
<linearGradient id="paint85_linear_183_381" x1="404.527" y1="-4.90268" x2="478.115" y2="-4.90268" gradientUnits="userSpaceOnUse">
<stop stop-color="#F4EB8E"/>
<stop offset="0.99" stop-color="#8F6E45"/>
</linearGradient>
<linearGradient id="paint86_linear_183_381" x1="410.078" y1="-4.90268" x2="483.656" y2="-4.90268" gradientUnits="userSpaceOnUse">
<stop stop-color="#F4EB8E"/>
<stop offset="0.99" stop-color="#8F6E45"/>
</linearGradient>
<linearGradient id="paint87_linear_183_381" x1="415.623" y1="-4.90268" x2="489.201" y2="-4.90268" gradientUnits="userSpaceOnUse">
<stop stop-color="#F4EB8E"/>
<stop offset="0.99" stop-color="#8F6E45"/>
</linearGradient>
<linearGradient id="paint88_linear_183_381" x1="421.166" y1="-4.90268" x2="494.744" y2="-4.90268" gradientUnits="userSpaceOnUse">
<stop stop-color="#F4EB8E"/>
<stop offset="0.99" stop-color="#8F6E45"/>
</linearGradient>
<linearGradient id="paint89_linear_183_381" x1="426.707" y1="-4.90268" x2="500.285" y2="-4.90268" gradientUnits="userSpaceOnUse">
<stop stop-color="#F4EB8E"/>
<stop offset="0.99" stop-color="#8F6E45"/>
</linearGradient>
<linearGradient id="paint90_linear_183_381" x1="432.25" y1="-4.90268" x2="505.828" y2="-4.90268" gradientUnits="userSpaceOnUse">
<stop stop-color="#F4EB8E"/>
<stop offset="0.99" stop-color="#8F6E45"/>
</linearGradient>
<linearGradient id="paint91_linear_183_381" x1="437.793" y1="-4.90268" x2="511.37" y2="-4.90268" gradientUnits="userSpaceOnUse">
<stop stop-color="#F4EB8E"/>
<stop offset="0.99" stop-color="#8F6E45"/>
</linearGradient>
<linearGradient id="paint92_linear_183_381" x1="443.336" y1="-4.90268" x2="516.913" y2="-4.90268" gradientUnits="userSpaceOnUse">
<stop stop-color="#F4EB8E"/>
<stop offset="0.99" stop-color="#8F6E45"/>
</linearGradient>
<linearGradient id="paint93_linear_183_381" x1="448.879" y1="-4.90268" x2="522.456" y2="-4.90268" gradientUnits="userSpaceOnUse">
<stop stop-color="#F4EB8E"/>
<stop offset="0.99" stop-color="#8F6E45"/>
</linearGradient>
<linearGradient id="paint94_linear_183_381" x1="454.422" y1="-4.90268" x2="527.999" y2="-4.90268" gradientUnits="userSpaceOnUse">
<stop stop-color="#F4EB8E"/>
<stop offset="0.99" stop-color="#8F6E45"/>
</linearGradient>
<linearGradient id="paint95_linear_183_381" x1="459.965" y1="-4.90268" x2="533.553" y2="-4.90268" gradientUnits="userSpaceOnUse">
<stop stop-color="#F4EB8E"/>
<stop offset="0.99" stop-color="#8F6E45"/>
</linearGradient>
<linearGradient id="paint96_linear_183_381" x1="313.386" y1="12.4032" x2="316.723" y2="69.5381" gradientUnits="userSpaceOnUse">
<stop stop-color="#8F6E45"/>
<stop offset="1" stop-color="#D6C679"/>
</linearGradient>
</defs>
</svg>
